<?xml version="1.0" encoding="UTF-8" standalone="no"?>
<!-- Created with Inkscape (http://www.inkscape.org/) -->

<svg
   xmlns:dc="http://purl.org/dc/elements/1.1/"
   xmlns:cc="http://creativecommons.org/ns#"
   xmlns:rdf="http://www.w3.org/1999/02/22-rdf-syntax-ns#"
   xmlns:svg="http://www.w3.org/2000/svg"
   xmlns="http://www.w3.org/2000/svg"
   xmlns:sodipodi="http://sodipodi.sourceforge.net/DTD/sodipodi-0.dtd"
   xmlns:inkscape="http://www.inkscape.org/namespaces/inkscape"
   width="500"
   height="500"
   viewBox="0 0 132.29166 132.29167"
   version="1.1"
   id="svg8"
   inkscape:version="0.92.2 (5c3e80d, 2017-08-06)"
   sodipodi:docname="TRADEBUTTON_ROUND.svg"
   inkscape:export-filename="C:\Users\harshnisar\tradebutton\images\tradebutton_icon_twitter.png"
   inkscape:export-xdpi="96"
   inkscape:export-ydpi="96">
  <defs
     id="defs2" />
  <sodipodi:namedview
     id="base"
     pagecolor="#ffffff"
     bordercolor="#666666"
     borderopacity="1.0"
     inkscape:pageopacity="0.0"
     inkscape:pageshadow="2"
     inkscape:zoom="0.77498903"
     inkscape:cx="551.61172"
     inkscape:cy="118.05529"
     inkscape:document-units="mm"
     inkscape:current-layer="layer1"
     showgrid="false"
     inkscape:window-width="1366"
     inkscape:window-height="715"
     inkscape:window-x="-8"
     inkscape:window-y="-8"
     inkscape:window-maximized="1"
     units="px" />
  <metadata
     id="metadata5">
    <rdf:RDF>
      <cc:Work
         rdf:about="">
        <dc:format>image/svg+xml</dc:format>
        <dc:type
           rdf:resource="http://purl.org/dc/dcmitype/StillImage" />
        <dc:title></dc:title>
      </cc:Work>
    </rdf:RDF>
  </metadata>
  <g
     inkscape:groupmode="layer"
     id="layer2"
     inkscape:label="CUT"
     transform="translate(0,-164.70832)">
    <rect
       style="opacity:1;vector-effect:none;fill:#383838;fill-opacity:1;stroke:none;stroke-width:3.78074193;stroke-linecap:butt;stroke-linejoin:miter;stroke-miterlimit:4;stroke-dasharray:none;stroke-dashoffset:0;stroke-opacity:1;paint-order:normal"
       id="rect837-0"
       width="661.45831"
       height="132.29167"
       x="3.3236916"
       y="523.9162"
       ry="66.145836" />
    <path
       style="fill:#00ff00;stroke:#00ff00;stroke-width:1.32291663;stroke-linecap:butt;stroke-linejoin:miter;stroke-miterlimit:4;stroke-dasharray:none;stroke-opacity:1"
       d="M 3.3353275,590.01822 H 36.408237"
       id="path841-0"
       inkscape:connector-curvature="0" />
    <rect
       style="opacity:1;vector-effect:none;fill:#ff2a2a;fill-opacity:1;stroke:none;stroke-width:5.91987276;stroke-linecap:butt;stroke-linejoin:miter;stroke-miterlimit:4;stroke-dasharray:none;stroke-dashoffset:0;stroke-opacity:1;paint-order:normal"
       id="rect837-3-8-8-0-5-0-9-4"
       width="820.06885"
       height="466.41412"
       x="89.578636"
       y="-1068.1182"
       transform="rotate(33.045848)" />
  </g>
  <g
     inkscape:label="Layer 1"
     inkscape:groupmode="layer"
     id="layer1"
     transform="translate(0,-164.70832)">
    <g
       id="g1525"
       transform="matrix(0.99998433,0,0,0.99998832,0,0.00192302)">
      <path
         transform="matrix(0.26458333,0,0,0.26458333,0,164.70832)"
         id="path863"
         d="M 250,0 A 250.00001,250.00001 0 0 0 0,250 250.00001,250.00001 0 0 0 98.214844,448.25781 L 369.90039,30.630859 A 250.00001,250.00001 0 0 0 250,0 Z m 138.03125,41.748047 a 250.00001,250.00001 0 0 1 10.23242,7.316406 250.00001,250.00001 0 0 0 -10.23242,-7.316406 z m 20.08398,14.806641 a 250.00001,250.00001 0 0 1 9.4668,8.316406 250.00001,250.00001 0 0 0 -9.4668,-8.316406 z m 18.53711,16.765624 a 250.00001,250.00001 0 0 1 8.55274,9.181641 250.00001,250.00001 0 0 0 -8.55274,-9.181641 z m 16.75586,18.519532 a 250.00001,250.00001 0 0 1 7.60157,9.999996 250.00001,250.00001 0 0 0 -7.60157,-9.999996 z m 14.82032,20.093746 a 250.00001,250.00001 0 0 1 6.57031,10.71485 250.00001,250.00001 0 0 0 -6.57031,-10.71485 z m 12.74414,21.47657 a 250.00001,250.00001 0 0 1 5.47461,11.33398 250.00001,250.00001 0 0 0 -5.47461,-11.33398 z m 10.53515,22.64257 a 250.00001,250.00001 0 0 1 4.29688,11.76758 250.00001,250.00001 0 0 0 -4.29688,-11.76758 z m 8.23242,23.61329 a 250.00001,250.00001 0 0 1 3.08985,12.10351 250.00001,250.00001 0 0 0 -3.08985,-12.10351 z m 5.81836,24.25586 a 250.00001,250.00001 0 0 1 1.875,12.4121 250.00001,250.00001 0 0 0 -1.875,-12.4121 z m 3.37305,24.76367 A 250.00001,250.00001 0 0 1 500,250 250.00001,250.00001 0 0 0 498.93164,228.68555 Z m 0.004,42.60547 a 250.00001,250.00001 0 0 1 -1.50977,12.4414 250.00001,250.00001 0 0 0 1.50977,-12.4414 z m -3.3711,24.75976 a 250.00001,250.00001 0 0 1 -2.74414,12.2207 250.00001,250.00001 0 0 0 2.74414,-12.2207 z m -5.82422,24.2793 a 250.00001,250.00001 0 0 1 -3.94531,11.8789 250.00001,250.00001 0 0 0 3.94531,-11.8789 z m -8.2207,23.58789 a 250.00001,250.00001 0 0 1 -5.10547,11.41015 250.00001,250.00001 0 0 0 5.10547,-11.41015 z m -10.53515,22.64844 a 250.00001,250.00001 0 0 1 -6.21485,10.83593 250.00001,250.00001 0 0 0 6.21485,-10.83593 z m -12.74219,21.48047 a 250.00001,250.00001 0 0 1 -7.26172,10.15624 250.00001,250.00001 0 0 0 7.26172,-10.15624 z m -14.81836,20.09765 a 250.00001,250.00001 0 0 1 -8.25,9.39063 250.00001,250.00001 0 0 0 8.25,-9.39063 z m -16.75781,18.52149 a 250.00001,250.00001 0 0 1 -9.13086,8.50781 250.00001,250.00001 0 0 0 9.13086,-8.50781 z m -18.52149,16.75781 a 250.00001,250.00001 0 0 1 -9.94141,7.55664 250.00001,250.00001 0 0 0 9.94141,-7.55664 z M 98.222746,448.26367 A 250.00001,250.00001 0 0 0 118.1329,462.03125 250.00001,250.00001 0 0 1 98.222746,448.26367 Z m 289.824224,9.97852 a 250.00001,250.00001 0 0 1 -10.64454,6.52734 250.00001,250.00001 0 0 0 10.64454,-6.52734 z m -268.45313,4.68554 a 250.00001,250.00001 0 0 0 19.66016,10.86915 250.00001,250.00001 0 0 1 -19.66016,-10.86915 z m 246.97266,8.05665 a 250.00001,250.00001 0 0 1 -11.23829,5.42968 250.00001,250.00001 0 0 0 11.23829,-5.42968 z m -224.14844,4.34179 a 250.00001,250.00001 0 0 0 18.93359,8.11719 250.00001,250.00001 0 0 1 -18.93359,-8.11719 z m 201.5,6.19336 a 250.00001,250.00001 0 0 1 -11.70899,4.27539 250.00001,250.00001 0 0 0 11.70899,-4.27539 z m -177.44922,3.79297 a 250.00001,250.00001 0 0 0 17.80078,5.60352 250.00001,250.00001 0 0 1 -17.80078,-5.60352 z m 153.86133,4.42773 a 250.00001,250.00001 0 0 1 -12.0586,3.08008 250.00001,250.00001 0 0 0 12.0586,-3.08008 z m -128.91406,3 a 250.00001,250.00001 0 0 0 16.35937,3.40235 250.00001,250.00001 0 0 1 -16.35937,-3.40235 z m 104.63476,2.82422 a 250.00001,250.00001 0 0 1 -12.31836,1.86133 250.00001,250.00001 0 0 0 12.31836,-1.86133 z m -79.00976,1.97852 a 250.00001,250.00001 0 0 0 14.60742,1.53906 250.00001,250.00001 0 0 1 -14.60742,-1.53906 z m 54.25,1.39258 A 250.00001,250.00001 0 0 1 250,500 a 250.00001,250.00001 0 0 0 21.29102,-1.06445 z"
         style="opacity:1;vector-effect:none;fill:#ffc700;fill-opacity:1;stroke:none;stroke-width:0;stroke-linecap:butt;stroke-linejoin:miter;stroke-miterlimit:4;stroke-dasharray:none;stroke-dashoffset:0;stroke-opacity:1;paint-order:normal"
         inkscape:connector-curvature="0" />
      <path
         id="rect837-3-8-8-0-5-0-9-4-5-5"
         d="M 97.87155,172.81428 25.988077,283.31141 A 66.145836,66.145836 0 0 0 66.1479,297.00153 66.145836,66.145836 0 0 0 132.29374,230.8557 66.145836,66.145836 0 0 0 97.87155,172.81428 Z"
         style="opacity:1;vector-effect:none;fill:#383838;fill-opacity:1;stroke:none;stroke-width:5.91987276;stroke-linecap:butt;stroke-linejoin:miter;stroke-miterlimit:4;stroke-dasharray:none;stroke-dashoffset:0;stroke-opacity:1;paint-order:normal"
         inkscape:connector-curvature="0"
         transform="translate(0,1.2291667e-6)" />
      <g
         transform="translate(-198.9778,0.47721419)"
         id="g949">
        <path
           inkscape:connector-curvature="0"
           style="opacity:1;vector-effect:none;fill:#ffc700;fill-opacity:1;stroke:none;stroke-width:9.89999866;stroke-linecap:butt;stroke-linejoin:miter;stroke-miterlimit:4;stroke-dasharray:none;stroke-dashoffset:0;stroke-opacity:1;paint-order:normal"
           d="m 1033.0586,165.41406 -24.2578,37.28906 c 4.4182,1.96812 6.9336,5.70813 6.9336,11.88282 0,11.0934 -6.6127,13.65429 -17.27932,13.65429 h -6.26758 l -67.54492,103.82813 v 0.0645 h 93.01172 c 10.88,0 45.0138,0.001 57.1738,-22.18554 6.1867,-10.88002 6.187,-28.80032 -0.2129,-40.32032 -8.1066,-14.29341 -17.0674,-17.92129 -28.8007,-21.97461 14.5066,-4.90669 22.8272,-10.23922 27.9472,-25.8125 3.2,-10.0267 2.5594,-26.45354 -5.334,-37.54687 -8.6144,-12.22689 -22.5596,-17.01348 -35.3691,-18.87891 z m -51.03126,103.14649 h 18.77346 c 10.6666,0 17.2812,3.62563 17.2812,13.65234 0,11.09329 -6.6146,13.6543 -17.2812,13.6543 h -18.77346 z"
           transform="matrix(0.26458333,0,0,0.26458333,0,164.70832)"
           id="rect837-3-8" />
        <path
           inkscape:connector-curvature="0"
           style="opacity:1;vector-effect:none;fill:#383838;fill-opacity:1;stroke:none;stroke-width:9.89999866;stroke-linecap:butt;stroke-linejoin:miter;stroke-miterlimit:4;stroke-dasharray:none;stroke-dashoffset:0;stroke-opacity:1;paint-order:normal"
           d="M 924.64258,164.25977 V 332.13281 L 992.35547,228.04492 H 982.0293 v -23.67969 h 25.7324 l 26.0899,-40.10546 z"
           transform="matrix(0.26458333,0,0,0.26458333,0,164.70832)"
           id="rect837-3" />
      </g>
    </g>
  </g>
</svg>
